<svg xmlns="http://www.w3.org/2000/svg" xmlns:xlink="http://www.w3.org/1999/xlink" width="962.86" height="409.91" viewBox="0 0 962.86 409.91">
  <defs>
    <style>
      .cls-1, .cls-18, .cls-29, .cls-39, .cls-7 {
        fill: none;
      }

      .cls-2 {
        fill: #4b3ea7;
      }

      .cls-3 {
        fill: #3c3489;
      }

      .cls-4 {
        clip-path: url(#clip-path);
      }

      .cls-5 {
        fill: #edffff;
      }

      .cls-43, .cls-44, .cls-45, .cls-6 {
        fill: #fff;
      }

      .cls-18, .cls-39, .cls-7 {
        stroke: #fff;
      }

      .cls-18, .cls-7 {
        stroke-miterlimit: 10;
      }

      .cls-7 {
        stroke-width: 0.99px;
        stroke-dasharray: 4.95;
      }

      .cls-8 {
        clip-path: url(#clip-path-2);
      }

      .cls-9 {
        fill: #a26bd3;
      }

      .cls-10 {
        fill: #a06acc;
      }

      .cls-11, .cls-40 {
        fill: #ffd756;
      }

      .cls-12 {
        fill: #f7ce45;
      }

      .cls-13 {
        fill: #ea5189;
      }

      .cls-14 {
        fill: #d4497c;
      }

      .cls-15 {
        fill: #fa699d;
      }

      .cls-16 {
        fill: #ffdd73;
      }

      .cls-17 {
        fill: #ae73e3;
      }

      .cls-18, .cls-39 {
        stroke-width: 0.74px;
      }

      .cls-19 {
        fill: #8f5eba;
      }

      .cls-20 {
        fill: #00c0a5;
      }

      .cls-21 {
        fill: #00d9ba;
      }

      .cls-22 {
        fill: #00a891;
      }

      .cls-23 {
        fill: #894e2c;
      }

      .cls-24 {
        fill: #cc8d53;
      }

      .cls-25 {
        fill: #eaa15f;
      }

      .cls-26 {
        fill: #faac65;
      }

      .cls-27 {
        fill: #4f2d19;
      }

      .cls-28 {
        fill: #9c5932;
      }

      .cls-29 {
        stroke: #0e0b0f;
        stroke-width: 0.49px;
      }

      .cls-29, .cls-39 {
        stroke-linecap: round;
        stroke-linejoin: round;
      }

      .cls-30 {
        fill: #0e0b0f;
      }

      .cls-31 {
        fill: #231d27;
      }

      .cls-32 {
        fill: #fcfbfb;
      }

      .cls-33 {
        fill: #ffa51c;
      }

      .cls-34 {
        clip-path: url(#clip-path-3);
      }

      .cls-35 {
        fill: #e09118;
      }

      .cls-36 {
        fill: #ffb84d;
      }

      .cls-37 {
        clip-path: url(#clip-path-4);
      }

      .cls-38 {
        clip-path: url(#clip-path-5);
      }

      .cls-40 {
        font-size: 46.57px;
      }

      .cls-40, .cls-43, .cls-44 {
        font-family: LilitaOne;
      }

      .cls-41 {
        letter-spacing: -0.03em;
      }

      .cls-42 {
        letter-spacing: -0.03em;
      }

      .cls-43 {
        font-size: 28.11px;
      }

      .cls-44 {
        font-size: 28.11px;
      }

      .cls-45 {
        font-size: 17.51px;
        font-family: Quicksand-Bold, Quicksand Bold;
        font-weight: 700;
      }

      .cls-46 {
        letter-spacing: -0.05em;
      }

      .cls-47 {
        letter-spacing: -0.04em;
      }

      .cls-48 {
        letter-spacing: -0.03em;
      }

      .cls-49 {
        letter-spacing: 0em;
      }
    </style>
    <clipPath id="clip-path" transform="translate(72.04 52.68)">
      <rect class="cls-1" width="820" height="312"/>
    </clipPath>
    <clipPath id="clip-path-2" transform="translate(72.04 52.68)">
      <path class="cls-1" d="M107.63,60.06A65.39,65.39,0,0,0-10.91,7.49,65.39,65.39,0,1,0,107.63,60.06Z"/>
    </clipPath>
    <clipPath id="clip-path-3" transform="translate(72.04 52.68)">
      <path class="cls-1" d="M568.8,222c1.49-.35,2.3-2.08,2.2-3.61-.08-1.36-.92-2.89-3.79-3.76a5.22,5.22,0,0,1-3.62-6.2,1.24,1.24,0,0,1,0-.16c1.27-5.09-2.62-5-2.62-5s-1.45,4.51-19.62,2.4a2,2,0,0,0-2.15,2.58c1.71,5.41,7.87,16.2,29.56,13.78"/>
    </clipPath>
    <clipPath id="clip-path-4" transform="translate(72.04 52.68)">
      <path class="cls-1" d="M603.14,65.84,590.81,89.36,565,75.82a12.92,12.92,0,1,1-18.23-9.55L520.89,52.73,533.21,29.2a12.92,12.92,0,1,0,12-22.88L557.53-17.2l24.78,13a12.92,12.92,0,0,1,8.91-12.17A12.92,12.92,0,0,1,607.51-8.1a12.92,12.92,0,0,1-4.83,14.56l24.77,13L615.13,43a12.92,12.92,0,1,0-12,22.88Z"/>
    </clipPath>
    <clipPath id="clip-path-5" transform="translate(72.04 52.68)">
      <path class="cls-1" d="M215.57,60.38c-.41.19-.83.35-1.25.5L225.4,84.77l26.19-12.15a12.79,12.79,0,1,0,18.47-8.56l26.19-12.15L263.4-18.94,192.55,13.92l11.08,23.89a12.08,12.08,0,0,1,1.18-.63,12.79,12.79,0,0,1,10.76,23.2Z"/>
    </clipPath>
  </defs>
  <g id="BACKGROUND">
    <rect class="cls-2" x="72.04" y="52.68" width="820" height="312"/>
  </g>
  <g id="OBJECTS">
    <path class="cls-3" d="M0,236.37s105.54,34.18,120.39-51.94,25.43-124.76,149.8-85.64S424.44,44.21,374.37,0H0Z" transform="translate(72.04 52.68)"/>
    <path class="cls-3" d="M468.8,312S463.47,238.87,574,247.78s138.25-50.31,115-132.55S764.76,0,764.76,0H820V312Z" transform="translate(72.04 52.68)"/>
    <path class="cls-2" d="M348.14,277a2.71,2.71,0,1,1,2.7-2.71A2.71,2.71,0,0,1,348.14,277Zm0-.91a1.8,1.8,0,0,0,0-3.6" transform="translate(72.04 52.68)"/>
    <g class="cls-4">
      <g>
        <g>
          <path class="cls-5" d="M-52.52,270.5A17.25,17.25,0,0,1-47,273s0-.06,0-.09A26.29,26.29,0,0,1-15.1,253.84,26.17,26.17,0,0,1-1.45,262.4a33.59,33.59,0,0,1,62,12.57,26.25,26.25,0,0,1,37.27,28.59A17.19,17.19,0,0,1,125.61,317a17.2,17.2,0,0,0-25.89-21.43,26.25,26.25,0,0,0-37.27-28.59,33.59,33.59,0,0,0-62-12.57A26.17,26.17,0,0,0-13.2,245.8a26.28,26.28,0,0,0-31.91,19.06s0,.06,0,.09a17,17,0,0,0-5.49-2.49A17.21,17.21,0,0,0-71.53,275a17.27,17.27,0,0,0-.51,4.37A17.21,17.21,0,0,1-52.52,270.5Z" transform="translate(72.04 52.68)"/>
          <path class="cls-6" d="M-59,295.86a17.13,17.13,0,0,0,11.23-1,17.22,17.22,0,0,0,13,17.45,17.08,17.08,0,0,0,9.26-.25A22.39,22.39,0,0,0-11,323.76a22.41,22.41,0,0,0,14.75-1.33,17.19,17.19,0,0,0,26.85,4.16,26.22,26.22,0,0,0,37,4.75,22.45,22.45,0,0,0,33.66-7.58A17.21,17.21,0,0,0,125.61,317a17.19,17.19,0,0,0-27.79-13.39A26.25,26.25,0,0,0,60.55,275a33.59,33.59,0,0,0-62-12.57,26.17,26.17,0,0,0-13.65-8.56A26.29,26.29,0,0,0-47,272.9s0,.06,0,.09a17.25,17.25,0,0,0-5.49-2.49A17.21,17.21,0,0,0-72,279.32,17.22,17.22,0,0,0-59,295.86Z" transform="translate(72.04 52.68)"/>
        </g>
        <path class="cls-5" d="M32.28,274.91c-.81-.65-1.63-1.27-2.49-1.84s-1.71-1.14-2.6-1.65a28.94,28.94,0,0,0-5.56-2.52,17.36,17.36,0,0,0-6-.91,14.08,14.08,0,0,0-5.87,1.6,12.74,12.74,0,0,1,2.75-1.47,13.49,13.49,0,0,1,3.08-.7,15.74,15.74,0,0,1,6.24.77,23.52,23.52,0,0,1,5.63,2.75A26.06,26.06,0,0,1,32.28,274.91Z" transform="translate(72.04 52.68)"/>
        <path class="cls-5" d="M17.8,306.56c-.81-.65-1.63-1.27-2.49-1.84s-1.71-1.14-2.6-1.65a29.56,29.56,0,0,0-5.56-2.52,17.12,17.12,0,0,0-6-.9,14,14,0,0,0-5.86,1.59,13.2,13.2,0,0,1,2.75-1.47,13.39,13.39,0,0,1,3.07-.69,15.53,15.53,0,0,1,6.24.76A23.71,23.71,0,0,1,13,302.59,26.13,26.13,0,0,1,17.8,306.56Z" transform="translate(72.04 52.68)"/>
        <path class="cls-5" d="M89.72,319.55c-.81-.65-1.63-1.27-2.49-1.84s-1.71-1.14-2.6-1.65a28.94,28.94,0,0,0-5.56-2.52,17.36,17.36,0,0,0-6-.91,14.08,14.08,0,0,0-5.87,1.6A12.74,12.74,0,0,1,70,312.76a13.49,13.49,0,0,1,3.08-.7,15.74,15.74,0,0,1,6.24.77,23.52,23.52,0,0,1,5.63,2.75A26.06,26.06,0,0,1,89.72,319.55Z" transform="translate(72.04 52.68)"/>
        <path class="cls-5" d="M-14.31,288.27a13.7,13.7,0,0,0-6.56-3.77,10.76,10.76,0,0,0-3.75-.22,12.81,12.81,0,0,0-3.62,1l-.25.1-.18-.21a16.64,16.64,0,0,0-3.16-2.81,13.7,13.7,0,0,0-3.84-1.78,12.17,12.17,0,0,0-2.08-.42,11.66,11.66,0,0,0-2.13,0,14.34,14.34,0,0,0-4.18,1.05,13.33,13.33,0,0,1,4.13-1.43,12.61,12.61,0,0,1,2.22-.14,13.75,13.75,0,0,1,2.2.33,13.28,13.28,0,0,1,4.06,1.79,14.83,14.83,0,0,1,3.35,2.93l-.43-.11a13.8,13.8,0,0,1,3.85-1,13.2,13.2,0,0,1,2,0,12.68,12.68,0,0,1,2,.38,12.36,12.36,0,0,1,3.57,1.65A12.88,12.88,0,0,1-14.31,288.27Z" transform="translate(72.04 52.68)"/>
        <path class="cls-5" d="M68.93,299a13.82,13.82,0,0,0-6.57-3.77,10.72,10.72,0,0,0-3.74-.22A13.13,13.13,0,0,0,55,296l-.25.1-.18-.21a16.64,16.64,0,0,0-3.16-2.81,13.51,13.51,0,0,0-3.83-1.78,12.28,12.28,0,0,0-2.09-.42,11.67,11.67,0,0,0-2.13,0A14.52,14.52,0,0,0,39.18,292a13.24,13.24,0,0,1,4.13-1.43,13.53,13.53,0,0,1,2.21-.14,13.75,13.75,0,0,1,2.2.33,13.42,13.42,0,0,1,4.06,1.79,14.83,14.83,0,0,1,3.35,2.93l-.43-.1a13.14,13.14,0,0,1,3.85-1,11,11,0,0,1,2,0,11.88,11.88,0,0,1,2,.37,12.37,12.37,0,0,1,3.57,1.66A13.06,13.06,0,0,1,68.93,299Z" transform="translate(72.04 52.68)"/>
      </g>
      <g>
        <g>
          <path class="cls-5" d="M871.3,269.86a17.25,17.25,0,0,0-5.49,2.49s0-.06,0-.09a26.25,26.25,0,0,0-45.56-10.5,33.59,33.59,0,0,0-62,12.58A26.24,26.24,0,0,0,721,302.92a17.19,17.19,0,0,0-27.79,13.39,17.2,17.2,0,0,1,25.89-21.43,26.24,26.24,0,0,1,37.27-28.58,33.59,33.59,0,0,1,62-12.58,26.25,26.25,0,0,1,45.56,10.5s0,.06,0,.09a17.18,17.18,0,0,1,26.91,14.38A17.24,17.24,0,0,0,871.3,269.86Z" transform="translate(72.04 52.68)"/>
          <path class="cls-6" d="M877.82,295.22a17.16,17.16,0,0,1-11.22-1,17.18,17.18,0,0,1-22.26,17.19A22.42,22.42,0,0,1,815,321.79,17.17,17.17,0,0,1,788.18,326a26.22,26.22,0,0,1-37,4.75,22.47,22.47,0,0,1-33.66-7.59,17.21,17.21,0,0,1-24.31-6.81A17.19,17.19,0,0,1,721,302.92a26.24,26.24,0,0,1,37.27-28.58,33.59,33.59,0,0,1,62-12.58,26.25,26.25,0,0,1,45.56,10.5s0,.06,0,.09a17.16,17.16,0,0,1,25,6.34A17.21,17.21,0,0,1,877.82,295.22Z" transform="translate(72.04 52.68)"/>
        </g>
        <path class="cls-5" d="M786.5,274.27a26.13,26.13,0,0,1,4.79-4,23.71,23.71,0,0,1,5.63-2.75,15.53,15.53,0,0,1,6.24-.76,13.39,13.39,0,0,1,3.07.69A13,13,0,0,1,809,269a14,14,0,0,0-5.86-1.59,17.12,17.12,0,0,0-6,.9,29.56,29.56,0,0,0-5.56,2.52c-.89.51-1.76,1.07-2.6,1.65S787.31,273.62,786.5,274.27Z" transform="translate(72.04 52.68)"/>
        <path class="cls-5" d="M801,305.92a27,27,0,0,1,4.8-4,23.68,23.68,0,0,1,5.63-2.74,15.36,15.36,0,0,1,6.24-.77,13.41,13.41,0,0,1,3.07.7,12.32,12.32,0,0,1,2.75,1.47,14,14,0,0,0-5.86-1.6,17.37,17.37,0,0,0-6,.9,29.55,29.55,0,0,0-5.56,2.53c-.89.51-1.75,1.06-2.6,1.65S801.78,305.28,801,305.92Z" transform="translate(72.04 52.68)"/>
        <path class="cls-5" d="M729.06,318.91a26.13,26.13,0,0,1,4.79-4,23.71,23.71,0,0,1,5.63-2.75,15.53,15.53,0,0,1,6.24-.76,13.39,13.39,0,0,1,3.07.69,13,13,0,0,1,2.75,1.47,14,14,0,0,0-5.86-1.59,17.12,17.12,0,0,0-6,.9,29.56,29.56,0,0,0-5.56,2.52c-.89.51-1.76,1.07-2.6,1.65S729.87,318.26,729.06,318.91Z" transform="translate(72.04 52.68)"/>
        <path class="cls-5" d="M833.08,287.63a13.06,13.06,0,0,1,2.86-2.64,12.08,12.08,0,0,1,3.57-1.65,9.67,9.67,0,0,1,4-.35,13.46,13.46,0,0,1,3.85,1l-.43.11a14.87,14.87,0,0,1,3.35-2.94,13.15,13.15,0,0,1,4.06-1.78,12.71,12.71,0,0,1,2.2-.33,11.62,11.62,0,0,1,2.21.14,12.75,12.75,0,0,1,4.13,1.43,14.22,14.22,0,0,0-4.17-1.06,12.64,12.64,0,0,0-2.13,0,13.35,13.35,0,0,0-5.92,2.21,16,16,0,0,0-3.16,2.8l-.18.21-.25-.1a12.77,12.77,0,0,0-3.63-1,10.72,10.72,0,0,0-3.74.21A13.9,13.9,0,0,0,833.08,287.63Z" transform="translate(72.04 52.68)"/>
        <path class="cls-5" d="M749.85,298.39a13.08,13.08,0,0,1,2.86-2.64,12.08,12.08,0,0,1,3.57-1.65,10.84,10.84,0,0,1,2-.38,11.12,11.12,0,0,1,2,0,13.55,13.55,0,0,1,3.85,1l-.43.11A14.87,14.87,0,0,1,767,291.9a13.05,13.05,0,0,1,4.06-1.78,13.58,13.58,0,0,1,2.2-.33,11.67,11.67,0,0,1,2.21.14,12.75,12.75,0,0,1,4.13,1.43,14.36,14.36,0,0,0-4.18-1.06,12.61,12.61,0,0,0-2.13,0,13.38,13.38,0,0,0-5.91,2.21,15.74,15.74,0,0,0-3.16,2.81l-.18.21-.25-.1a12.47,12.47,0,0,0-3.63-1,10.71,10.71,0,0,0-3.74.22A13.75,13.75,0,0,0,749.85,298.39Z" transform="translate(72.04 52.68)"/>
      </g>
      <path class="cls-7" d="M152.36-9.26S180.2,47.56,79.6,60.06C8.76,68.86,14.93,125.89,19,156.16S.39,203.5-22.2,190.47" transform="translate(72.04 52.68)"/>
      <g>
        <g>
          <g>
            <path class="cls-5" d="M107.63,60.06A65.4,65.4,0,0,1-10.91,7.49,65.39,65.39,0,1,0,107.63,60.06Z" transform="translate(72.04 52.68)"/>
            <path class="cls-6" d="M63.73,90.3a65.23,65.23,0,0,0,43.9-30.24A65.39,65.39,0,0,0-10.91,7.49,65.41,65.41,0,0,0,63.73,90.3Z" transform="translate(72.04 52.68)"/>
          </g>
          <g class="cls-8">
            <path class="cls-9" d="M84.65,56.52s22.7-22,7.9-71.79c0,0,36.6,24.9,23.28,68.45C115.83,53.18,100.81,64.67,84.65,56.52Z" transform="translate(72.04 52.68)"/>
            <path class="cls-10" d="M88.52,96.89a31.73,31.73,0,0,0,1.2-7.72A65.45,65.45,0,0,1,26.9,104.43c-3.18.53-6.55.95-10.13,1.22C16.77,105.65,44.89,128.65,88.52,96.89Z" transform="translate(72.04 52.68)"/>
            <g>
              <path class="cls-11" d="M88.53,96.89a38.47,38.47,0,0,0-9.42-36.21s-4,40.43-62.34,45C16.77,105.65,44.89,128.65,88.53,96.89Z" transform="translate(72.04 52.68)"/>
              <path class="cls-12" d="M89.72,89.17a39.51,39.51,0,0,0-.7-9.38A65.25,65.25,0,0,1,63.73,90.3c-1.11.2-2.23.38-3.34.53-7.65,5.92-18.4,11.08-33.49,13.6A65.45,65.45,0,0,0,89.72,89.17Z" transform="translate(72.04 52.68)"/>
            </g>
            <g>
              <path class="cls-13" d="M76.43,58.49S34.32,78.24-36.35,33.18c0,0,8-52.86,48.89-55.57,0,0,42.16,16.08,67.82,75.18Z" transform="translate(72.04 52.68)"/>
              <path class="cls-14" d="M-12.48,37.91A65.18,65.18,0,0,1-10.91,7.49a65.26,65.26,0,0,0-9.58,35Q-15,45.44-9.81,47.86A65.85,65.85,0,0,1-12.48,37.91Z" transform="translate(72.04 52.68)"/>
            </g>
            <path class="cls-15" d="M19.59-15.3C27.5-10,63,15.6,76.52,52.11a1.77,1.77,0,0,1-.09,1.44h0a1.76,1.76,0,0,1-3.1,0c-5.34-9.87-24.55-42.32-57-64a2.88,2.88,0,0,1,0-4.84l.07,0A2.88,2.88,0,0,1,19.59-15.3Z" transform="translate(72.04 52.68)"/>
            <path class="cls-16" d="M78.48,68.4c-1.43,4.35-4.12,11.33-7.74,15.53a1.23,1.23,0,0,0,1.1,2h0a1.23,1.23,0,0,0,.72-.37C74,84,80.32,76.91,80.26,68.69A.91.91,0,0,0,78.48,68.4Z" transform="translate(72.04 52.68)"/>
            <path class="cls-17" d="M91.08,50.82c3.71-6.42,10.15-20.32,8.61-37.46a1.24,1.24,0,0,1,2.45-.37.43.43,0,0,0,0,.11s0,.08,0,.11c.15,1.36,2.85,27-9.79,38.67A.85.85,0,0,1,91.08,50.82Z" transform="translate(72.04 52.68)"/>
          </g>
          <g>
            <path class="cls-5" d="M82.52,72A13.44,13.44,0,1,1,93.29,56.38,13.45,13.45,0,0,1,82.52,72Z" transform="translate(72.04 52.68)"/>
            <path class="cls-6" d="M82,69.19a10.54,10.54,0,1,1,8.44-12.28A10.54,10.54,0,0,1,82,69.19Z" transform="translate(72.04 52.68)"/>
          </g>
        </g>
        <path class="cls-6" d="M19.59-15.3C24.52-11.79,29.25-8,33.88-4.13s9.1,8,13.44,12.2A152.56,152.56,0,0,1,59.51,21.54c3.68,4.79,7.21,9.85,9.15,15.62a43.74,43.74,0,0,0-4.33-7.92A86.58,86.58,0,0,0,58.91,22,167.18,167.18,0,0,0,46.62,8.78C42.36,4.51,37.9.45,33.38-3.56q-3.38-3-6.84-5.93C24.26-11.46,21.93-13.38,19.59-15.3Z" transform="translate(72.04 52.68)"/>
        <path class="cls-6" d="M100.57,12.07a62.42,62.42,0,0,1,.1,8.65,73.59,73.59,0,0,1-1,8.62,58.67,58.67,0,0,1-2.17,8.41,39.22,39.22,0,0,1-3.72,7.82c.54-1.35,1.2-2.62,1.63-4s.94-2.7,1.37-4.07c.75-2.75,1.42-5.53,1.92-8.35s.87-5.65,1.19-8.5c.16-1.42.29-2.85.38-4.29S100.49,13.51,100.57,12.07Z" transform="translate(72.04 52.68)"/>
      </g>
      <path class="cls-7" d="M600,338.84s-23.64-72.33,84.14-79.06c23.53-1.46,49.58-6,69.79-18.87,47.52-30.15-19.19-93.28,10.89-130.75,18.05-22.46,51.82-19,76.59-12.84" transform="translate(72.04 52.68)"/>
      <g>
        <g>
          <path class="cls-18" d="M769,106.72a72.7,72.7,0,0,1,13,18.59c8.09,16.16,3.8,34.15,8.19,51,3.69,14.23,15.93,22.57,29.24,26.55,12.62,3.78,26.41,10.66,27,25.64.45,12.34-11.07,20.24-21.09,24.73" transform="translate(72.04 52.68)"/>
          <g>
            <g>
              <polygon class="cls-9" points="772.03 27.9 765.06 114.99 856.43 184.43 848.62 69.94 772.03 27.9"/>
              <polygon class="cls-13" points="848.62 69.94 806.84 92.46 772.03 27.9 848.62 69.94"/>
              <path class="cls-19" d="M776.58,17.26,746.41.7c12.09,24.08,24.84,65.69-11.16,93.7l49.14,37.35Z" transform="translate(72.04 52.68)"/>
              <polygon class="cls-11" points="806.84 92.46 856.43 184.43 848.62 69.94 806.84 92.46"/>
              <polygon class="cls-20" points="806.84 92.46 765.06 114.99 772.03 27.9 806.84 92.46"/>
              <path class="cls-12" d="M776.58,17.26l-20,10.79c3.39,14.51,3.69,30.58-3.66,45.33l31.48,58.37Z" transform="translate(72.04 52.68)"/>
              <path class="cls-14" d="M746.41.7a125.68,125.68,0,0,1,10.16,27.35l20-10.79Z" transform="translate(72.04 52.68)"/>
            </g>
            <polygon class="cls-21" points="767.83 110.7 773.1 33.8 776.17 106.2 767.83 110.7"/>
            <polygon class="cls-17" points="770.24 115.17 806.91 143.9 777.7 111.15 770.24 115.17"/>
            <path class="cls-6" d="M695.79,58c.24-6.24.59-12.47,1-18.7s.82-12.46,1.23-18.68S698.91,8.19,699.43,2l.81-9.33c.31-3.1.58-6.21.92-9.32-.11,3.12-.29,6.24-.43,9.36L700.19,2c-.36,6.23-.82,12.46-1.23,18.69s-.92,12.44-1.45,18.66S696.44,51.81,695.79,58Z" transform="translate(72.04 52.68)"/>
          </g>
        </g>
        <g>
          <g>
            <g>
              <path class="cls-14" d="M787.66,154a3.26,3.26,0,0,1-3.1-1l-10.4,6.61.12.57,10.4-6.6a3.27,3.27,0,0,0,5.55-1.13l12.15,2.05-.12-.57-12.15-2A3.25,3.25,0,0,1,787.66,154Z" transform="translate(72.04 52.68)"/>
              <path class="cls-13" d="M786.48,148.16a3.25,3.25,0,0,0-2.45,2.16l-12.15-2,1.08,5.36.12.58,1.08,5.36,10.4-6.61a3.27,3.27,0,0,0,5.55-1.12l12.15,2-1.08-5.36-.12-.58L800,142.59l-10.4,6.61A3.26,3.26,0,0,0,786.48,148.16Z" transform="translate(72.04 52.68)"/>
            </g>
            <polygon class="cls-15" points="855.68 203.45 844.42 201.56 844.88 203.82 855.68 203.45"/>
            <polygon class="cls-15" points="862.56 202.05 871.72 196.04 872.02 197.53 862.56 202.05"/>
          </g>
          <g>
            <g>
              <path class="cls-12" d="M800.27,192.26a3.27,3.27,0,0,1-3.26.25l-7,10.16.33.48,7-10.16a3.27,3.27,0,0,0,4.67-3.2l12-2.88-.34-.48-12,2.88A3.31,3.31,0,0,1,800.27,192.26Z" transform="translate(72.04 52.68)"/>
              <path class="cls-11" d="M796.89,187.34a3.27,3.27,0,0,0-1.41,2.95l-12,2.88,3.1,4.51.33.48,3.1,4.51,7-10.16a3.27,3.27,0,0,0,3.26-.25,3.31,3.31,0,0,0,1.41-2.95l12-2.88-3.09-4.51-.33-.48-3.1-4.51-7,10.15A3.27,3.27,0,0,0,796.89,187.34Z" transform="translate(72.04 52.68)"/>
            </g>
            <polygon class="cls-16" points="867.34 243.53 856.24 246.21 857.55 248.12 867.34 243.53"/>
            <polygon class="cls-16" points="873.13 239.56 879.2 230.43 880.06 231.69 873.13 239.56"/>
          </g>
          <g>
            <g>
              <path class="cls-22" d="M838.55,213.36a3.23,3.23,0,0,1-3.23.48l-6.27,10.61.36.46,6.27-10.61a3.28,3.28,0,0,0,4.44-3.52l11.75-3.69-.36-.46-11.76,3.7A3.24,3.24,0,0,1,838.55,213.36Z" transform="translate(72.04 52.68)"/>
              <path class="cls-20" d="M834.84,208.69a3.29,3.29,0,0,0-1.2,3l-11.75,3.69,3.4,4.29.36.46,3.4,4.28,6.27-10.61a3.27,3.27,0,0,0,4.43-3.51l11.76-3.7-3.4-4.28-.37-.46-3.4-4.28-6.26,10.6A3.29,3.29,0,0,0,834.84,208.69Z" transform="translate(72.04 52.68)"/>
            </g>
            <polygon class="cls-21" points="905.54 264.99 894.65 268.42 896.09 270.23 905.54 264.99"/>
            <polygon class="cls-21" points="911.04 260.62 916.47 251.11 917.42 252.3 911.04 260.62"/>
          </g>
        </g>
      </g>
      <g>
        <g>
          <g>
            <path class="cls-23" d="M221.21,179.78s-2.84-26.91,19.31-22.36,19.81,27.15-1.17,34.6Z" transform="translate(72.04 52.68)"/>
            <g>
              <path class="cls-24" d="M240.87,162c9.48,5.8,4.39,20.15-8.41,25.38l3.23,2.19C251,184.12,256.23,165.84,240.87,162Z" transform="translate(72.04 52.68)"/>
              <path class="cls-25" d="M240.87,162l-.87-.22c-16.45-3.37-15.78,20-15.78,20l8.24,5.56C245.26,182.13,250.35,167.78,240.87,162Z" transform="translate(72.04 52.68)"/>
            </g>
            <path class="cls-26" d="M225.24,181.53s-.22-18.2,11.18-19.05C236.42,162.48,229.49,166.45,225.24,181.53Z" transform="translate(72.04 52.68)"/>
          </g>
          <g>
            <path class="cls-23" d="M189.57,183.33s-3.19-26.87-23.78-17.53-13.3,30.88,8.81,33.48Z" transform="translate(72.04 52.68)"/>
            <g>
              <path class="cls-24" d="M166.45,170.33c-7.95,7.76.2,20.63,13.84,22.89l-2.67,2.85C161.5,194.16,152.34,177.5,166.45,170.33Z" transform="translate(72.04 52.68)"/>
              <path class="cls-25" d="M166.45,170.33c.27-.14.53-.28.81-.41C182.55,163,187.09,186,187.09,186l-6.8,7.25C166.65,191,158.5,178.09,166.45,170.33Z" transform="translate(72.04 52.68)"/>
            </g>
            <path class="cls-26" d="M186,185.93s-3.82-17.8-15.12-16.1C170.91,169.83,178.55,172.17,186,185.93Z" transform="translate(72.04 52.68)"/>
          </g>
        </g>
        <path class="cls-27" d="M183.39,245.7s-40.92,38.52-29.16,69a12.21,12.21,0,0,0,16.14,6.83l.26-.11Z" transform="translate(72.04 52.68)"/>
        <path class="cls-27" d="M241.07,239.23S289.5,267.72,284.79,300a12.23,12.23,0,0,1-14.23,10.24l-.27-.06Z" transform="translate(72.04 52.68)"/>
        <path class="cls-23" d="M241.07,239.23c13-15.53,9.5-31,9.5-31-3.72-17.07-15.15-25-25.66-28.63a45.72,45.72,0,0,0-39,4.38c-9.43,5.88-18.83,16.13-18.67,33.6,0,0,0,15.86,16.14,28.11,0,0-32.58,63.31-3.43,90.08,7.62,7,18.15,10,28.44,8.8l15.1-1.7,15.1-1.69c10.29-1.16,19.89-6.36,25.78-14.88C286.86,293.74,241.07,239.23,241.07,239.23Z" transform="translate(72.04 52.68)"/>
        <g>
          <path class="cls-24" d="M214.44,262.2a36.47,36.47,0,0,0-4.34.79c19.55.26,36.58,16.8,39.07,38.94,1.79,16-4.49,30.82-15.26,39.55a39.55,39.55,0,0,1-4.06.69l8.75-1a39.36,39.36,0,0,0,4.05-.69c10.78-8.73,17.06-23.54,15.26-39.55C255.24,277.16,235.78,259.81,214.44,262.2Z" transform="translate(72.04 52.68)"/>
          <path class="cls-25" d="M249.17,301.93c-2.49-22.14-19.52-38.68-39.07-38.94-19,4.59-31.94,24.49-29.46,46.63,1.8,16,11.2,29.06,23.65,35.19a40.08,40.08,0,0,0,4.1-.23l6.36-.72,8.75-1,6.35-.71a39.55,39.55,0,0,0,4.06-.69C244.68,332.75,251,317.94,249.17,301.93Z" transform="translate(72.04 52.68)"/>
          <path class="cls-26" d="M210.45,266.08s-26.56,9.2-26.79,43.3C183.66,309.38,193.37,275.29,210.45,266.08Z" transform="translate(72.04 52.68)"/>
        </g>
        <g>
          <g>
            <ellipse class="cls-28" cx="253.95" cy="320.26" rx="31.17" ry="21.36" transform="translate(-40.91 553.05) rotate(-77.73)"/>
            <g>
              <path class="cls-24" d="M258.65,298.65a10.74,10.74,0,0,0-1.37-.19c4.81,4.35,7,13,5,22.14-2.46,11.27-10.38,19.23-18.14,18.58a11.09,11.09,0,0,0,5.08,2.69c8.18,1.78,16.91-6.46,19.51-18.39S266.83,300.43,258.65,298.65Z" transform="translate(72.04 52.68)"/>
              <path class="cls-25" d="M262.31,320.6c2-9.14-.22-17.79-5-22.14-7.76-.65-15.69,7.31-18.14,18.58-2,9.14.21,17.79,5,22.14C251.93,339.83,259.85,331.87,262.31,320.6Z" transform="translate(72.04 52.68)"/>
            </g>
          </g>
          <g>
            <ellipse class="cls-28" cx="188.79" cy="327.57" rx="21.36" ry="31.17" transform="translate(-48.98 163.54) rotate(-25.07)"/>
            <g>
              <path class="cls-24" d="M179.42,307.54a11.8,11.8,0,0,1,1.29-.49c-3.73,5.31-4,14.23,0,22.71,4.89,10.44,14.38,16.45,21.81,14.09a11,11,0,0,1-4.36,3.75c-7.58,3.55-17.92-2.54-23.1-13.6S171.84,311.09,179.42,307.54Z" transform="translate(72.04 52.68)"/>
              <path class="cls-25" d="M180.71,329.76c-4-8.48-3.73-17.4,0-22.71,7.42-2.35,16.92,3.65,21.8,14.1,4,8.48,3.74,17.39,0,22.7C195.09,346.21,185.6,340.2,180.71,329.76Z" transform="translate(72.04 52.68)"/>
            </g>
          </g>
        </g>
        <path class="cls-27" d="M183.39,245.7s26.66,11.36,57.68-6.47C241.07,239.23,214.68,261,183.39,245.7Z" transform="translate(72.04 52.68)"/>
        <g>
          <g>
            <g>
              <path class="cls-26" d="M208.52,209.46c11.46-1.29,21.68,4.82,23.93,13.89a15.32,15.32,0,0,0-.09-2c-1.14-10.15-12-17.26-24.29-15.89s-21.3,10.73-20.16,20.88a14.53,14.53,0,0,0,.36,2C188.45,219,197.07,210.75,208.52,209.46Z" transform="translate(72.04 52.68)"/>
              <g>
                <path class="cls-27" d="M212.2,242.19C201,243.44,191,237.66,188.47,229h0c2.25,9.06,12.42,15.85,23.88,14.57s19.87-10.16,20.05-19.5h0C231.82,233.08,223.37,240.94,212.2,242.19Z" transform="translate(72.04 52.68)"/>
                <path class="cls-25" d="M208.52,209.46c-11.45,1.29-20.07,9.51-20.25,18.84.06.23.14.44.2.66,2.57,8.7,12.55,14.48,23.73,13.23s19.62-9.11,20.2-18.16c0-.23,0-.45,0-.68C230.2,214.28,220,208.17,208.52,209.46Z" transform="translate(72.04 52.68)"/>
              </g>
            </g>
            <g>
              <path class="cls-29" d="M209.7,218.32,211.13,231s-2.64,4.67-7.91.89" transform="translate(72.04 52.68)"/>
              <path class="cls-29" d="M211.13,231s3.33,4.84,7.53-.84" transform="translate(72.04 52.68)"/>
            </g>
            <g>
              <path class="cls-30" d="M215.11,211.62a5.15,5.15,0,0,1,1.94,3.31c.43,3.85-4.4,7.56-10.8,8.28a17.52,17.52,0,0,1-6.39-.41c2.24,1.87,6.14,2.86,10.43,2.38,6.39-.72,11.22-4.43,10.79-8.29C220.81,214.43,218.44,212.51,215.11,211.62Z" transform="translate(72.04 52.68)"/>
              <path class="cls-31" d="M217.05,214.93a5.15,5.15,0,0,0-1.94-3.31,17.52,17.52,0,0,0-6.39-.41c-6.39.72-11.23,4.42-10.79,8.28a5.09,5.09,0,0,0,1.93,3.31,17.52,17.52,0,0,0,6.39.41C212.65,222.49,217.48,218.78,217.05,214.93Z" transform="translate(72.04 52.68)"/>
            </g>
          </g>
          <path class="cls-32" d="M207.16,214.62c.35.72-.81,2-2.59,2.9s-3.52,1-3.87.3.8-2,2.59-2.89S206.8,213.91,207.16,214.62Z" transform="translate(72.04 52.68)"/>
        </g>
        <g>
          <g>
            <path class="cls-31" d="M200.46,197.25c.37,3.26-.64,6.06-2.25,6.24s-3.22-2.32-3.59-5.59.65-6.06,2.26-6.24S200.09,194,200.46,197.25Z" transform="translate(72.04 52.68)"/>
            <path class="cls-32" d="M199.08,196.54c.14,1.25-.25,2.32-.86,2.39s-1.24-.89-1.38-2.14.25-2.32.87-2.39S198.94,195.29,199.08,196.54Z" transform="translate(72.04 52.68)"/>
          </g>
          <g>
            <path class="cls-31" d="M213.68,195.76c.37,3.27,2,5.77,3.58,5.59s2.62-3,2.25-6.24-2-5.77-3.58-5.59S213.31,192.5,213.68,195.76Z" transform="translate(72.04 52.68)"/>
            <path class="cls-32" d="M214.87,194.77c.14,1.25.75,2.21,1.37,2.14s1-1.14.86-2.4-.75-2.21-1.37-2.14S214.73,193.51,214.87,194.77Z" transform="translate(72.04 52.68)"/>
          </g>
        </g>
        <g>
          <path class="cls-23" d="M155.41,309.82s-5.72-23.68,22.12-55.11C177.53,254.71,159,275.6,155.41,309.82Z" transform="translate(72.04 52.68)"/>
          <path class="cls-23" d="M248.21,246.77s20.65,23.39,23.11,48.53C271.32,295.3,272.53,265.94,248.21,246.77Z" transform="translate(72.04 52.68)"/>
        </g>
        <g>
          <path class="cls-28" d="M241.3,202.65c.19,1.71-2.83,3.45-6.75,3.89s-7.25-.59-7.44-2.3,2.83-3.45,6.75-3.89S241.11,200.94,241.3,202.65Z" transform="translate(72.04 52.68)"/>
          <path class="cls-28" d="M189.24,208.49c.2,1.71-2.83,3.45-6.75,3.89s-7.25-.59-7.44-2.3,2.83-3.45,6.75-3.89S189.05,206.78,189.24,208.49Z" transform="translate(72.04 52.68)"/>
        </g>
      </g>
      <g>
        <g>
          <g>
            <g>
              <path class="cls-12" d="M661.15,302c-18.45,15.44-46,18.39-68.8,13.12-18-4.14-40.09-15.53-44.65-35.17-2.4-10.32-.3-20,4.09-29-7.85,11.42-12.95,24.35-9.68,38.42,4.57,19.64,26.69,31,44.66,35.17,22.84,5.27,50.34,2.32,68.79-13.12a67.84,67.84,0,0,0,17.14-22.07A67.78,67.78,0,0,1,661.15,302Z" transform="translate(72.04 52.68)"/>
              <path class="cls-11" d="M677.62,271.57c.38-6.32.32-17.44-2.22-26.16a6.64,6.64,0,0,0-11.18-2.66c-2.74,2.9-5.56,5.58-6,5.91-13.18,10.18-42,11.77-55.1.46-3.36-2.91-5.6-7.52-2.64-11.47a21.23,21.23,0,0,1,4.34-4.09c2.36-1.77,4.81-3.43,6.57-6.14a22.81,22.81,0,0,0,2.91-6.37c4.11-14.73-8.44-30.06-23.32-33.25a28,28,0,0,0-10.72-.24,23.33,23.33,0,0,0-10.68,4.84,35.16,35.16,0,0,0-3.14,3.09c-2.91,3.16-6.34,7.68-5.49,9.79,2.7,6.75,4.93,14.19,5.43,21.46a14.08,14.08,0,0,1-.47,4.72c-2,7.41-9.46,12.79-13.77,19-.13.18-.25.37-.37.55-4.39,9-6.49,18.65-4.09,29,4.56,19.64,26.68,31,44.65,35.17,22.84,5.27,50.35,2.32,68.8-13.12a67.78,67.78,0,0,0,11.55-12.62A48.39,48.39,0,0,0,677.62,271.57Z" transform="translate(72.04 52.68)"/>
            </g>
            <g>
              <path class="cls-33" d="M645.59,273.9c-9.77,24.37-27,32.4-53.23,24.45-9.22-2.79-19-10.46-19-19.58-2,10.19,8.74,19,18.78,22.06,26.22,7.95,43.46-.09,53.23-24.46a5,5,0,0,0,.29-2.65C645.62,273.78,645.61,273.84,645.59,273.9Z" transform="translate(72.04 52.68)"/>
              <path class="cls-12" d="M592.36,298.35c26.22,7.95,43.46-.08,53.23-24.45,0-.06,0-.12,0-.18a5,5,0,0,0-5.58-4.15c-7.06,1-18.24,1.14-31.9-3.46-9.75-3.27-24-3.31-31.17,5.36-.34.42-.66.83-1,1.25a15.64,15.64,0,0,0-2.7,6C573.33,287.89,583.14,295.56,592.36,298.35Z" transform="translate(72.04 52.68)"/>
            </g>
          </g>
          <path class="cls-16" d="M598.05,247.91c5.51,6,26.56,24.57,61.59,2.81a.8.8,0,0,1,1,1.24c-14.81,14.81-39.93,17.13-57.24,5.35-3-2.07-6-5-6.72-8.69A.8.8,0,0,1,598.05,247.91Z" transform="translate(72.04 52.68)"/>
          <path class="cls-16" d="M549.37,268.75c-.12,8.58,3.06,35.82,47.16,44.62a.35.35,0,0,0,.18-.68c-12.65-4.14-40.27-16.21-46.65-44A.35.35,0,0,0,549.37,268.75Z" transform="translate(72.04 52.68)"/>
          <path class="cls-6" d="M622.49,260.65a48.32,48.32,0,0,0,9.77-.17,58.52,58.52,0,0,0,9.56-1.86,60.87,60.87,0,0,0,9.17-3.33,81.24,81.24,0,0,0,8.65-4.57c-1.34.93-2.68,1.88-4.08,2.74s-2.83,1.67-4.33,2.35c-.74.35-1.48.72-2.23,1.05l-2.3.91c-.75.32-1.54.57-2.32.82s-1.56.54-2.36.74a52.39,52.39,0,0,1-9.71,1.71A37.13,37.13,0,0,1,622.49,260.65Z" transform="translate(72.04 52.68)"/>
          <path class="cls-6" d="M559.05,294.4c1.3,1.22,2.63,2.41,4,3.52s2.79,2.22,4.24,3.26a77.46,77.46,0,0,0,9,5.63,60.27,60.27,0,0,0,9.77,4.22l2.55.79c.86.23,1.73.41,2.59.61l1.3.32,1.32.2,2.65.42a44.31,44.31,0,0,1-10.58-1.8,54.89,54.89,0,0,1-9.94-4.1,69,69,0,0,1-9-5.83A58.52,58.52,0,0,1,559.05,294.4Z" transform="translate(72.04 52.68)"/>
          <path class="cls-11" d="M579.54,272.39c2.38-3.45,6.89-5.55,10.86-6.3,4.81-.9,9.49.06,14.11,1.41a91.07,91.07,0,0,0,19.78,3.56l2,.12c-4.63.41-9.19,1.55-13.86,1.44-5.64-.13-11-1.94-16.61-2.33a40.3,40.3,0,0,0-8.43.34C585.94,270.83,580.38,271.17,579.54,272.39Z" transform="translate(72.04 52.68)"/>
          <path class="cls-6" d="M579.54,272.39a16.77,16.77,0,0,1,4.39-4,18.81,18.81,0,0,1,11.36-3,20.86,20.86,0,0,1,3,.37c1,.2,1.91.51,2.84.8a30.86,30.86,0,0,0-5.8-.6,22.47,22.47,0,0,0-11.06,2.91A22.85,22.85,0,0,0,579.54,272.39Z" transform="translate(72.04 52.68)"/>
          <path class="cls-16" d="M588.92,189.58c3.11,0,7.91,2.95,9.49,3.85a27.89,27.89,0,0,1,12.06,13c1.18,2.74,1.62,9.11-3.08,8.39-3.76-.58-4.42-6.85-5.49-9.67a11.92,11.92,0,0,0-4.39-6.11c-2.46-1.55-5.43-2-7.91-3.46-1.16-.69-3.83-2.83-3.25-4.45A2.44,2.44,0,0,1,588.92,189.58Z" transform="translate(72.04 52.68)"/>
          <path class="cls-6" d="M596.36,192.26a35.33,35.33,0,0,1,5,3.23,34.47,34.47,0,0,1,4.48,4,23.6,23.6,0,0,1,3.6,4.81,13.59,13.59,0,0,1,1.78,5.69,17.08,17.08,0,0,0-2.27-5.4,29.91,29.91,0,0,0-3.65-4.59,53,53,0,0,0-4.29-4Q598.76,194,596.36,192.26Z" transform="translate(72.04 52.68)"/>
          <path class="cls-11" d="M601.48,298.53s21.89,4.45,34.68-11.63c0,0-15.79,11.58-35.24,11.68" transform="translate(72.04 52.68)"/>
          <g>
            <g class="cls-34">
              <path class="cls-33" d="M568.8,222c1.49-.35,2.3-2.08,2.2-3.61-.08-1.36-.92-2.89-3.79-3.76a5.22,5.22,0,0,1-3.62-6.2,1.24,1.24,0,0,1,0-.16c1.27-5.09-2.62-5-2.62-5s-1.45,4.51-19.62,2.4a2,2,0,0,0-2.15,2.58c1.71,5.41,7.87,16.2,29.56,13.78" transform="translate(72.04 52.68)"/>
              <path class="cls-35" d="M567.94,211s-9.15,11.86-33.62-5.35c0,0-1,14,16.93,16.89s20.22,1.81,21.25-4.09S567.94,211,567.94,211Z" transform="translate(72.04 52.68)"/>
            </g>
            <path class="cls-36" d="M540.73,206.25s13.12,3.56,19.86-1.74a1.51,1.51,0,0,1,2.06.15,1.18,1.18,0,0,1,.22,1.14C562.45,207.26,549.93,212.14,540.73,206.25Z" transform="translate(72.04 52.68)"/>
            <path class="cls-6" d="M541,206.32c2.45.37,4.9.72,7.36.87a35,35,0,0,0,3.69.08,18.09,18.09,0,0,0,3.66-.48,12.49,12.49,0,0,1-3.63.86,23.48,23.48,0,0,1-3.75,0,28.73,28.73,0,0,1-3.71-.48A28.12,28.12,0,0,1,541,206.32Z" transform="translate(72.04 52.68)"/>
          </g>
        </g>
        <g>
          <path class="cls-31" d="M580.49,204.68c-.33,3.47-2.57,6.08-5,5.85s-4.11-3.24-3.77-6.7,2.57-6.08,5-5.85S580.83,201.22,580.49,204.68Z" transform="translate(72.04 52.68)"/>
          <path class="cls-6" d="M575.18,203c-.09.91-.68,1.6-1.32,1.54s-1.08-.85-1-1.77.68-1.6,1.31-1.53S575.27,202.08,575.18,203Z" transform="translate(72.04 52.68)"/>
        </g>
        <path class="cls-12" d="M587.31,216.59c-.15,1.5-2.56,2.5-5.38,2.22s-5-1.71-4.85-3.22,2.55-2.5,5.38-2.22S587.45,215.09,587.31,216.59Z" transform="translate(72.04 52.68)"/>
      </g>
      <g>
        <g class="cls-37">
          <path class="cls-13" d="M603.14,65.84,590.81,89.36,565,75.82a12.92,12.92,0,1,1-18.23-9.55L520.89,52.73,533.21,29.2a12.92,12.92,0,1,0,12-22.88L557.53-17.2l24.78,13a12.92,12.92,0,0,1,8.91-12.17A12.92,12.92,0,0,1,607.51-8.1a12.92,12.92,0,0,1-4.83,14.56l24.77,13L615.13,43a12.92,12.92,0,1,0-12,22.88Z" transform="translate(72.04 52.68)"/>
          <path class="cls-14" d="M596.31,87.93s23.74-80.28-70-100.29c0,0,16.82-42,20.2-40.26S645.08.68,645.08.68Z" transform="translate(72.04 52.68)"/>
        </g>
        <path class="cls-15" d="M552.19,77.46c-1.24-4-4.54-6.46-7.37-5.58s-4.13,4.82-2.89,8.78,4.54,6.46,7.37,5.58S553.42,81.42,552.19,77.46Z" transform="translate(72.04 52.68)"/>
        <path class="cls-15" d="M603.79-6.95c-1.24-4-4.54-6.46-7.37-5.58s-4.12,4.82-2.88,8.78,4.54,6.46,7.37,5.58S605-3,603.79-6.95Z" transform="translate(72.04 52.68)"/>
      </g>
      <g>
        <g class="cls-38">
          <path class="cls-9" d="M215.57,60.38c-.41.19-.83.35-1.25.5L225.4,84.77l26.19-12.15a12.79,12.79,0,1,0,18.47-8.56l26.19-12.15L263.4-18.94,192.55,13.92l11.08,23.89a12.08,12.08,0,0,1,1.18-.63,12.79,12.79,0,0,1,10.76,23.2Z" transform="translate(72.04 52.68)"/>
          <path class="cls-19" d="M220.18,83s-19.61-80.46,74-95.74c0,0-7.43-25-10.86-23.43L183.87,10Z" transform="translate(72.04 52.68)"/>
        </g>
        <path class="cls-17" d="M263.66,75.08c1.41-3.86,4.79-6.17,7.55-5.16s3.84,5,2.43,8.82-4.8,6.16-7.55,5.15S262.25,78.94,263.66,75.08Z" transform="translate(72.04 52.68)"/>
      </g>
    </g>
    <path class="cls-33" d="M686.16,198.39a11,11,0,1,0,11,11A11,11,0,0,0,686.16,198.39Zm0,18.79a7.79,7.79,0,1,1,7.78-7.79A7.78,7.78,0,0,1,686.16,217.18Z" transform="translate(72.04 52.68)"/>
    <g>
      <line class="cls-39" x1="630.5" y1="177.55" x2="630.5" y2="204.15"/>
      <line class="cls-39" x1="640.72" y1="187.77" x2="620.28" y2="187.77"/>
      <line class="cls-39" x1="637.72" y1="194.99" x2="623.28" y2="180.55"/>
      <line class="cls-39" x1="623.28" y1="194.99" x2="637.72" y2="180.55"/>
    </g>
    <g>
      <line class="cls-39" x1="333.58" y1="179.55" x2="333.58" y2="206.15"/>
      <line class="cls-39" x1="323.37" y1="189.76" x2="343.8" y2="189.76"/>
      <line class="cls-39" x1="326.36" y1="196.99" x2="340.81" y2="182.54"/>
      <line class="cls-39" x1="340.81" y1="196.99" x2="326.36" y2="182.54"/>
    </g>
    <path class="cls-13" d="M85.68,226.79a11,11,0,1,0,11-11A11,11,0,0,0,85.68,226.79Zm3.22,0a7.79,7.79,0,1,1,7.78,7.78A7.78,7.78,0,0,1,88.9,226.79Z" transform="translate(72.04 52.68)"/>
    <path class="cls-11" d="M66.19,150.29,68,153.23l3.36-.84a.81.81,0,0,1,.81,1.3L70,156.34l1.83,2.94a.81.81,0,0,1-1,1.17l-3.21-1.3-2.22,2.65a.81.81,0,0,1-1.42-.58l.24-3.45-3.2-1.3a.8.8,0,0,1,.1-1.52l3.36-.84.25-3.45A.8.8,0,0,1,66.19,150.29Z" transform="translate(72.04 52.68)"/>
    <g>
      <rect class="cls-21" x="118.25" y="99.32" width="40.8" height="40.8" rx="3.61" transform="translate(54.51 76.67) rotate(-9.31)"/>
      <rect class="cls-20" x="120.64" y="101.7" width="36.03" height="36.03" rx="2.95" transform="translate(306.41 16.21) rotate(80.69)"/>
      <path class="cls-6" d="M121.46,109.54c.48,2,.89,4,1.28,6s.74,4,1.08,6.07.65,4.06.91,6.1.54,4.08.72,6.14c-.49-2-.89-4-1.28-6s-.74-4-1.08-6.08-.65-4.06-.91-6.1S121.64,111.59,121.46,109.54Z" transform="translate(72.04 52.68)"/>
    </g>
    <g>
      <rect class="cls-16" x="626.77" y="104.47" width="40.8" height="40.8" rx="3.61" transform="translate(141.39 -139.53) rotate(17.83)"/>
      <rect class="cls-12" x="629.16" y="106.86" width="36.03" height="36.03" rx="2.95" transform="translate(1036.29 -400.27) rotate(107.83)"/>
      <path class="cls-6" d="M636.52,108c-.49,2-1,4-1.62,6s-1.19,3.94-1.81,5.9-1.28,3.91-2,5.85-1.38,3.87-2.16,5.78c.48-2,1-4,1.62-6s1.18-3.94,1.8-5.9,1.28-3.9,2-5.84S635.74,109.89,636.52,108Z" transform="translate(72.04 52.68)"/>
    </g>
    <text x="72.04" y="52.68"/>  </g>
  <g id="TEXTS">
    <text class="cls-40" transform="translate(379.17 167.32)"><tspan class="cls-41">T</tspan><tspan class="cls-42" x="21.89" y="0">O</tspan><tspan x="52.67" y="0">Y SHOP</tspan></text>
    <text class="cls-43" transform="matrix(0.99, -0.16, 0.16, 0.99, 205, 184.17)">A</text>
    <text class="cls-44" transform="translate(708.82 185.54) rotate(17.83)">B</text>
    <text class="cls-45" transform="translate(392.62 218.72)">S<tspan class="cls-46" x="8.63" y="0">A</tspan><tspan x="18.42" y="0">VE UP</tspan><tspan class="cls-47" x="61.16" y="0"> </tspan><tspan class="cls-48" x="64.16" y="0">T</tspan><tspan class="cls-49" x="72.38" y="0">O 70% OFF</tspan></text>
  </g>
</svg>
